<svg id="visual" viewBox="0 0 900 450" width="900" height="450" xmlns="http://www.w3.org/2000/svg" xmlns:xlink="http://www.w3.org/1999/xlink" version="1.1"><rect x="0" y="0" width="900" height="450" fill="#001220"></rect><defs><linearGradient id="grad1_0" x1="50%" y1="0%" x2="100%" y2="100%"><stop offset="10%" stop-color="#cc2200" stop-opacity="1"></stop><stop offset="90%" stop-color="#cc2200" stop-opacity="1"></stop></linearGradient></defs><defs><linearGradient id="grad1_1" x1="50%" y1="0%" x2="100%" y2="100%"><stop offset="10%" stop-color="#cc2200" stop-opacity="1"></stop><stop offset="90%" stop-color="#960052" stop-opacity="1"></stop></linearGradient></defs><defs><linearGradient id="grad1_2" x1="50%" y1="0%" x2="100%" y2="100%"><stop offset="10%" stop-color="#362154" stop-opacity="1"></stop><stop offset="90%" stop-color="#960052" stop-opacity="1"></stop></linearGradient></defs><defs><linearGradient id="grad1_3" x1="50%" y1="0%" x2="100%" y2="100%"><stop offset="10%" stop-color="#362154" stop-opacity="1"></stop><stop offset="90%" stop-color="#001220" stop-opacity="1"></stop></linearGradient></defs><defs><linearGradient id="grad2_0" x1="0%" y1="0%" x2="50%" y2="100%"><stop offset="10%" stop-color="#cc2200" stop-opacity="1"></stop><stop offset="90%" stop-color="#cc2200" stop-opacity="1"></stop></linearGradient></defs><defs><linearGradient id="grad2_1" x1="0%" y1="0%" x2="50%" y2="100%"><stop offset="10%" stop-color="#960052" stop-opacity="1"></stop><stop offset="90%" stop-color="#cc2200" stop-opacity="1"></stop></linearGradient></defs><defs><linearGradient id="grad2_2" x1="0%" y1="0%" x2="50%" y2="100%"><stop offset="10%" stop-color="#960052" stop-opacity="1"></stop><stop offset="90%" stop-color="#362154" stop-opacity="1"></stop></linearGradient></defs><defs><linearGradient id="grad2_3" x1="0%" y1="0%" x2="50%" y2="100%"><stop offset="10%" stop-color="#001220" stop-opacity="1"></stop><stop offset="90%" stop-color="#362154" stop-opacity="1"></stop></linearGradient></defs><g transform="translate(900, 0)"><path d="M0 337.5C-32.2 321.8 -64.5 306.1 -94.3 290.1C-124 274 -151.4 257.7 -172.2 237C-193.1 216.4 -207.5 191.5 -234.6 170.5C-261.8 149.4 -301.7 132.1 -321 104.3C-340.3 76.5 -338.9 38.3 -337.5 0L0 0Z" fill="#0e1d3e"></path><path d="M0 253.1C-24.2 241.4 -48.4 229.6 -70.7 217.6C-93 205.5 -113.5 193.2 -129.2 177.8C-144.8 162.3 -155.6 143.7 -176 127.8C-196.3 112 -226.3 99.1 -240.7 78.2C-255.2 57.4 -254.2 28.7 -253.1 0L0 0Z" fill="#67175c"></path><path d="M0 168.8C-16.1 160.9 -32.2 153.1 -47.1 145C-62 137 -75.7 128.8 -86.1 118.5C-96.5 108.2 -103.7 95.8 -117.3 85.2C-130.9 74.7 -150.9 66 -160.5 52.1C-170.1 38.3 -169.4 19.1 -168.7 0L0 0Z" fill="#ba0037"></path><path d="M0 84.4C-8.1 80.5 -16.1 76.5 -23.6 72.5C-31 68.5 -37.8 64.4 -43.1 59.3C-48.3 54.1 -51.9 47.9 -58.7 42.6C-65.4 37.3 -75.4 33 -80.2 26.1C-85.1 19.1 -84.7 9.6 -84.4 0L0 0Z" fill="#cc2200"></path></g><g transform="translate(0, 450)"><path d="M0 -337.5C31.3 -323.2 62.5 -308.9 97.3 -299.6C132.2 -290.3 170.5 -286.1 191.6 -263.7C212.7 -241.4 216.5 -201 238.7 -173.4C260.8 -145.8 301.4 -131.1 321 -104.3C340.5 -77.5 339 -38.8 337.5 0L0 0Z" fill="#0e1d3e"></path><path d="M0 -253.1C23.4 -242.4 46.9 -231.6 73 -224.7C99.1 -217.7 127.9 -214.6 143.7 -197.8C159.5 -181.1 162.4 -150.7 179 -130C195.6 -109.4 226.1 -98.3 240.7 -78.2C255.4 -58.1 254.3 -29.1 253.1 0L0 0Z" fill="#67175c"></path><path d="M0 -168.7C15.6 -161.6 31.3 -154.4 48.7 -149.8C66.1 -145.2 85.3 -143 95.8 -131.9C106.3 -120.7 108.2 -100.5 119.3 -86.7C130.4 -72.9 150.7 -65.5 160.5 -52.1C170.3 -38.8 169.5 -19.4 168.8 0L0 0Z" fill="#ba0037"></path><path d="M0 -84.4C7.8 -80.8 15.6 -77.2 24.3 -74.9C33 -72.6 42.6 -71.5 47.9 -65.9C53.2 -60.4 54.1 -50.2 59.7 -43.3C65.2 -36.5 75.4 -32.8 80.2 -26.1C85.1 -19.4 84.8 -9.7 84.4 0L0 0Z" fill="#cc2200"></path></g></svg>