<svg id="visual" viewBox="0 0 900 450" width="900" height="450" xmlns="http://www.w3.org/2000/svg" xmlns:xlink="http://www.w3.org/1999/xlink" version="1.1"><rect x="0" y="0" width="900" height="450" fill="#001220"></rect><defs><linearGradient id="grad1_0" x1="50%" y1="0%" x2="100%" y2="100%"><stop offset="10%" stop-color="#cc2200" stop-opacity="1"></stop><stop offset="90%" stop-color="#cc2200" stop-opacity="1"></stop></linearGradient></defs><defs><linearGradient id="grad1_1" x1="50%" y1="0%" x2="100%" y2="100%"><stop offset="10%" stop-color="#cc2200" stop-opacity="1"></stop><stop offset="90%" stop-color="#960052" stop-opacity="1"></stop></linearGradient></defs><defs><linearGradient id="grad1_2" x1="50%" y1="0%" x2="100%" y2="100%"><stop offset="10%" stop-color="#362154" stop-opacity="1"></stop><stop offset="90%" stop-color="#960052" stop-opacity="1"></stop></linearGradient></defs><defs><linearGradient id="grad1_3" x1="50%" y1="0%" x2="100%" y2="100%"><stop offset="10%" stop-color="#362154" stop-opacity="1"></stop><stop offset="90%" stop-color="#001220" stop-opacity="1"></stop></linearGradient></defs><defs><linearGradient id="grad2_0" x1="0%" y1="0%" x2="50%" y2="100%"><stop offset="10%" stop-color="#cc2200" stop-opacity="1"></stop><stop offset="90%" stop-color="#cc2200" stop-opacity="1"></stop></linearGradient></defs><defs><linearGradient id="grad2_1" x1="0%" y1="0%" x2="50%" y2="100%"><stop offset="10%" stop-color="#960052" stop-opacity="1"></stop><stop offset="90%" stop-color="#cc2200" stop-opacity="1"></stop></linearGradient></defs><defs><linearGradient id="grad2_2" x1="0%" y1="0%" x2="50%" y2="100%"><stop offset="10%" stop-color="#960052" stop-opacity="1"></stop><stop offset="90%" stop-color="#362154" stop-opacity="1"></stop></linearGradient></defs><defs><linearGradient id="grad2_3" x1="0%" y1="0%" x2="50%" y2="100%"><stop offset="10%" stop-color="#001220" stop-opacity="1"></stop><stop offset="90%" stop-color="#362154" stop-opacity="1"></stop></linearGradient></defs><g transform="translate(900, 0)"><path d="M0 337.5C-31.3 323.4 -62.7 309.2 -97.6 300.5C-132.6 291.9 -171.2 288.6 -194.6 267.8C-217.9 246.9 -226.1 208.4 -247.6 179.9C-269 151.3 -303.8 132.6 -321 104.3C-338.2 76 -337.8 38 -337.5 0L0 0Z" fill="#0e1d3e"></path><path d="M0 253.1C-23.5 242.5 -47 231.9 -73.2 225.4C-99.5 218.9 -128.4 216.5 -145.9 200.8C-163.4 185.2 -169.6 156.3 -185.7 134.9C-201.8 113.5 -227.8 99.5 -240.7 78.2C-253.6 57 -253.4 28.5 -253.1 0L0 0Z" fill="#67175c"></path><path d="M0 168.8C-15.7 161.7 -31.3 154.6 -48.8 150.3C-66.3 145.9 -85.6 144.3 -97.3 133.9C-109 123.5 -113 104.2 -123.8 89.9C-134.5 75.6 -151.9 66.3 -160.5 52.1C-169.1 38 -168.9 19 -168.7 0L0 0Z" fill="#ba0037"></path><path d="M0 84.4C-7.8 80.8 -15.7 77.3 -24.4 75.1C-33.2 73 -42.8 72.2 -48.6 66.9C-54.5 61.7 -56.5 52.1 -61.9 45C-67.3 37.8 -75.9 33.2 -80.2 26.1C-84.5 19 -84.5 9.5 -84.4 0L0 0Z" fill="#cc2200"></path></g><g transform="translate(0, 450)"><path d="M0 -337.5C30.4 -316.2 60.8 -294.9 90.9 -279.6C120.9 -264.3 150.5 -255.1 172.2 -237C193.9 -219 207.7 -192.2 234.6 -170.5C261.5 -148.7 301.6 -131.9 321 -104.3C340.3 -76.7 338.9 -38.4 337.5 0L0 0Z" fill="#0e1d3e"></path><path d="M0 -253.1C22.8 -237.1 45.6 -221.2 68.1 -209.7C90.7 -198.2 112.9 -191.3 129.2 -177.8C145.4 -164.3 155.8 -144.2 176 -127.8C196.2 -111.5 226.2 -98.9 240.7 -78.2C255.2 -57.5 254.2 -28.8 253.1 0L0 0Z" fill="#67175c"></path><path d="M0 -168.7C15.2 -158.1 30.4 -147.4 45.4 -139.8C60.4 -132.2 75.3 -127.5 86.1 -118.5C97 -109.5 103.8 -96.1 117.3 -85.2C130.8 -74.3 150.8 -65.9 160.5 -52.1C170.2 -38.4 169.5 -19.2 168.8 0L0 0Z" fill="#ba0037"></path><path d="M0 -84.4C7.6 -79 15.2 -73.7 22.7 -69.9C30.2 -66.1 37.6 -63.8 43.1 -59.3C48.5 -54.8 51.9 -48.1 58.7 -42.6C65.4 -37.2 75.4 -33 80.2 -26.1C85.1 -19.2 84.7 -9.6 84.4 0L0 0Z" fill="#cc2200"></path></g></svg>