<svg id="visual" viewBox="0 0 900 450" width="900" height="450" xmlns="http://www.w3.org/2000/svg" xmlns:xlink="http://www.w3.org/1999/xlink" version="1.1"><rect x="0" y="0" width="900" height="450" fill="#001220"></rect><defs><linearGradient id="grad1_0" x1="50%" y1="0%" x2="100%" y2="100%"><stop offset="10%" stop-color="#cc2200" stop-opacity="1"></stop><stop offset="90%" stop-color="#cc2200" stop-opacity="1"></stop></linearGradient></defs><defs><linearGradient id="grad1_1" x1="50%" y1="0%" x2="100%" y2="100%"><stop offset="10%" stop-color="#cc2200" stop-opacity="1"></stop><stop offset="90%" stop-color="#960052" stop-opacity="1"></stop></linearGradient></defs><defs><linearGradient id="grad1_2" x1="50%" y1="0%" x2="100%" y2="100%"><stop offset="10%" stop-color="#362154" stop-opacity="1"></stop><stop offset="90%" stop-color="#960052" stop-opacity="1"></stop></linearGradient></defs><defs><linearGradient id="grad1_3" x1="50%" y1="0%" x2="100%" y2="100%"><stop offset="10%" stop-color="#362154" stop-opacity="1"></stop><stop offset="90%" stop-color="#001220" stop-opacity="1"></stop></linearGradient></defs><defs><linearGradient id="grad2_0" x1="0%" y1="0%" x2="50%" y2="100%"><stop offset="10%" stop-color="#cc2200" stop-opacity="1"></stop><stop offset="90%" stop-color="#cc2200" stop-opacity="1"></stop></linearGradient></defs><defs><linearGradient id="grad2_1" x1="0%" y1="0%" x2="50%" y2="100%"><stop offset="10%" stop-color="#960052" stop-opacity="1"></stop><stop offset="90%" stop-color="#cc2200" stop-opacity="1"></stop></linearGradient></defs><defs><linearGradient id="grad2_2" x1="0%" y1="0%" x2="50%" y2="100%"><stop offset="10%" stop-color="#960052" stop-opacity="1"></stop><stop offset="90%" stop-color="#362154" stop-opacity="1"></stop></linearGradient></defs><defs><linearGradient id="grad2_3" x1="0%" y1="0%" x2="50%" y2="100%"><stop offset="10%" stop-color="#001220" stop-opacity="1"></stop><stop offset="90%" stop-color="#362154" stop-opacity="1"></stop></linearGradient></defs><g transform="translate(900, 0)"><path d="M0 337.5C-33.7 326.7 -67.4 315.9 -98.6 303.4C-129.8 290.9 -158.5 276.8 -189.3 260.5C-220.1 244.2 -252.9 225.7 -273 198.4C-293.1 171.1 -300.5 135 -309.1 100.4C-317.7 65.9 -327.6 33 -337.5 0L0 0Z" fill="#0e1d3e"></path><path d="M0 253.1C-25.3 245 -50.5 236.9 -73.9 227.5C-97.3 218.2 -118.9 207.6 -142 195.4C-165 183.1 -189.7 169.3 -204.8 148.8C-219.9 128.3 -225.4 101.2 -231.8 75.3C-238.3 49.4 -245.7 24.7 -253.1 0L0 0Z" fill="#67175c"></path><path d="M0 168.8C-16.8 163.3 -33.7 157.9 -49.3 151.7C-64.9 145.5 -79.2 138.4 -94.6 130.3C-110 122.1 -126.5 112.8 -136.5 99.2C-146.6 85.5 -150.2 67.5 -154.5 50.2C-158.9 33 -163.8 16.5 -168.7 0L0 0Z" fill="#ba0037"></path><path d="M0 84.4C-8.4 81.7 -16.8 79 -24.6 75.8C-32.4 72.7 -39.6 69.2 -47.3 65.1C-55 61 -63.2 56.4 -68.3 49.6C-73.3 42.8 -75.1 33.7 -77.3 25.1C-79.4 16.5 -81.9 8.2 -84.4 0L0 0Z" fill="#cc2200"></path></g><g transform="translate(0, 450)"><path d="M0 -337.5C33.9 -325.4 67.8 -313.4 97 -298.6C126.3 -283.9 151 -266.5 182.8 -251.6C214.6 -236.7 253.7 -224.4 273 -198.4C292.4 -172.4 292.1 -132.7 299.6 -97.3C307 -62 322.3 -31 337.5 0L0 0Z" fill="#0e1d3e"></path><path d="M0 -253.1C25.4 -244.1 50.8 -235 72.8 -224C94.7 -212.9 113.2 -199.9 137.1 -188.7C161 -177.5 190.3 -168.3 204.8 -148.8C219.3 -129.3 219.1 -99.5 224.7 -73C230.3 -46.5 241.7 -23.2 253.1 0L0 0Z" fill="#67175c"></path><path d="M0 -168.7C16.9 -162.7 33.9 -156.7 48.5 -149.3C63.2 -141.9 75.5 -133.2 91.4 -125.8C107.3 -118.4 126.8 -112.2 136.5 -99.2C146.2 -86.2 146.1 -66.3 149.8 -48.7C153.5 -31 161.1 -15.5 168.8 0L0 0Z" fill="#ba0037"></path><path d="M0 -84.4C8.5 -81.4 16.9 -78.3 24.3 -74.7C31.6 -71 37.7 -66.6 45.7 -62.9C53.7 -59.2 63.4 -56.1 68.3 -49.6C73.1 -43.1 73 -33.2 74.9 -24.3C76.8 -15.5 80.6 -7.7 84.4 0L0 0Z" fill="#cc2200"></path></g></svg>