<svg id="visual" viewBox="0 0 900 450" width="900" height="450" xmlns="http://www.w3.org/2000/svg" xmlns:xlink="http://www.w3.org/1999/xlink" version="1.1"><rect x="0" y="0" width="900" height="450" fill="#001220"></rect><defs><linearGradient id="grad1_0" x1="50%" y1="0%" x2="100%" y2="100%"><stop offset="10%" stop-color="#cc2200" stop-opacity="1"></stop><stop offset="90%" stop-color="#cc2200" stop-opacity="1"></stop></linearGradient></defs><defs><linearGradient id="grad1_1" x1="50%" y1="0%" x2="100%" y2="100%"><stop offset="10%" stop-color="#cc2200" stop-opacity="1"></stop><stop offset="90%" stop-color="#960052" stop-opacity="1"></stop></linearGradient></defs><defs><linearGradient id="grad1_2" x1="50%" y1="0%" x2="100%" y2="100%"><stop offset="10%" stop-color="#362154" stop-opacity="1"></stop><stop offset="90%" stop-color="#960052" stop-opacity="1"></stop></linearGradient></defs><defs><linearGradient id="grad1_3" x1="50%" y1="0%" x2="100%" y2="100%"><stop offset="10%" stop-color="#362154" stop-opacity="1"></stop><stop offset="90%" stop-color="#001220" stop-opacity="1"></stop></linearGradient></defs><defs><linearGradient id="grad2_0" x1="0%" y1="0%" x2="50%" y2="100%"><stop offset="10%" stop-color="#cc2200" stop-opacity="1"></stop><stop offset="90%" stop-color="#cc2200" stop-opacity="1"></stop></linearGradient></defs><defs><linearGradient id="grad2_1" x1="0%" y1="0%" x2="50%" y2="100%"><stop offset="10%" stop-color="#960052" stop-opacity="1"></stop><stop offset="90%" stop-color="#cc2200" stop-opacity="1"></stop></linearGradient></defs><defs><linearGradient id="grad2_2" x1="0%" y1="0%" x2="50%" y2="100%"><stop offset="10%" stop-color="#960052" stop-opacity="1"></stop><stop offset="90%" stop-color="#362154" stop-opacity="1"></stop></linearGradient></defs><defs><linearGradient id="grad2_3" x1="0%" y1="0%" x2="50%" y2="100%"><stop offset="10%" stop-color="#001220" stop-opacity="1"></stop><stop offset="90%" stop-color="#362154" stop-opacity="1"></stop></linearGradient></defs><g transform="translate(900, 0)"><path d="M0 337.5C-31.9 317.4 -63.7 297.2 -91.5 281.5C-119.2 265.8 -142.9 254.5 -177.5 244.3C-212.1 234.2 -257.6 225.2 -273 198.4C-288.5 171.6 -273.9 126.9 -279.6 90.9C-285.3 54.8 -311.4 27.4 -337.5 0L0 0Z" fill="#0e1d3e"></path><path d="M0 253.1C-23.9 238 -47.8 222.9 -68.6 211.1C-89.4 199.3 -107.2 190.9 -133.1 183.2C-159.1 175.6 -193.2 168.9 -204.8 148.8C-216.4 128.7 -205.4 95.2 -209.7 68.1C-214 41.1 -233.6 20.6 -253.1 0L0 0Z" fill="#67175c"></path><path d="M0 168.8C-15.9 158.7 -31.9 148.6 -45.7 140.8C-59.6 132.9 -71.5 127.2 -88.8 122.2C-106.1 117.1 -128.8 112.6 -136.5 99.2C-144.2 85.8 -136.9 63.4 -139.8 45.4C-142.7 27.4 -155.7 13.7 -168.7 0L0 0Z" fill="#ba0037"></path><path d="M0 84.4C-8 79.3 -15.9 74.3 -22.9 70.4C-29.8 66.4 -35.7 63.6 -44.4 61.1C-53 58.5 -64.4 56.3 -68.3 49.6C-72.1 42.9 -68.5 31.7 -69.9 22.7C-71.3 13.7 -77.9 6.9 -84.4 0L0 0Z" fill="#cc2200"></path></g><g transform="translate(0, 450)"><path d="M0 -337.5C34.8 -329 69.5 -320.6 98.9 -304.3C128.3 -288.1 152.3 -264.1 176.9 -243.5C201.6 -222.9 226.9 -205.8 253.2 -184C279.5 -162.2 306.8 -135.7 321 -104.3C335.2 -72.9 336.3 -36.4 337.5 0L0 0Z" fill="#0e1d3e"></path><path d="M0 -253.1C26.1 -246.8 52.1 -240.4 74.2 -228.3C96.2 -216.1 114.2 -198.1 132.7 -182.6C151.2 -167.2 170.2 -154.3 189.9 -138C209.6 -121.6 230.1 -101.8 240.7 -78.2C251.4 -54.6 252.3 -27.3 253.1 0L0 0Z" fill="#67175c"></path><path d="M0 -168.7C17.4 -164.5 34.8 -160.3 49.4 -152.2C64.1 -144.1 76.1 -132 88.5 -121.8C100.8 -111.5 113.5 -102.9 126.6 -92C139.8 -81.1 153.4 -67.9 160.5 -52.1C167.6 -36.4 168.2 -18.2 168.8 0L0 0Z" fill="#ba0037"></path><path d="M0 -84.4C8.7 -82.3 17.4 -80.1 24.7 -76.1C32.1 -72 38.1 -66 44.2 -60.9C50.4 -55.7 56.7 -51.4 63.3 -46C69.9 -40.5 76.7 -33.9 80.2 -26.1C83.8 -18.2 84.1 -9.1 84.4 0L0 0Z" fill="#cc2200"></path></g></svg>