<svg id="visual" viewBox="0 0 900 450" width="900" height="450" xmlns="http://www.w3.org/2000/svg" xmlns:xlink="http://www.w3.org/1999/xlink" version="1.1"><rect x="0" y="0" width="900" height="450" fill="#001220"></rect><defs><linearGradient id="grad1_0" x1="50%" y1="0%" x2="100%" y2="100%"><stop offset="10%" stop-color="#cc2200" stop-opacity="1"></stop><stop offset="90%" stop-color="#cc2200" stop-opacity="1"></stop></linearGradient></defs><defs><linearGradient id="grad1_1" x1="50%" y1="0%" x2="100%" y2="100%"><stop offset="10%" stop-color="#cc2200" stop-opacity="1"></stop><stop offset="90%" stop-color="#960052" stop-opacity="1"></stop></linearGradient></defs><defs><linearGradient id="grad1_2" x1="50%" y1="0%" x2="100%" y2="100%"><stop offset="10%" stop-color="#362154" stop-opacity="1"></stop><stop offset="90%" stop-color="#960052" stop-opacity="1"></stop></linearGradient></defs><defs><linearGradient id="grad1_3" x1="50%" y1="0%" x2="100%" y2="100%"><stop offset="10%" stop-color="#362154" stop-opacity="1"></stop><stop offset="90%" stop-color="#001220" stop-opacity="1"></stop></linearGradient></defs><defs><linearGradient id="grad2_0" x1="0%" y1="0%" x2="50%" y2="100%"><stop offset="10%" stop-color="#cc2200" stop-opacity="1"></stop><stop offset="90%" stop-color="#cc2200" stop-opacity="1"></stop></linearGradient></defs><defs><linearGradient id="grad2_1" x1="0%" y1="0%" x2="50%" y2="100%"><stop offset="10%" stop-color="#960052" stop-opacity="1"></stop><stop offset="90%" stop-color="#cc2200" stop-opacity="1"></stop></linearGradient></defs><defs><linearGradient id="grad2_2" x1="0%" y1="0%" x2="50%" y2="100%"><stop offset="10%" stop-color="#960052" stop-opacity="1"></stop><stop offset="90%" stop-color="#362154" stop-opacity="1"></stop></linearGradient></defs><defs><linearGradient id="grad2_3" x1="0%" y1="0%" x2="50%" y2="100%"><stop offset="10%" stop-color="#001220" stop-opacity="1"></stop><stop offset="90%" stop-color="#362154" stop-opacity="1"></stop></linearGradient></defs><g transform="translate(900, 0)"><path d="M0 337.5C-35.4 329.5 -70.9 321.5 -99.2 305.3C-127.5 289.1 -148.7 264.7 -180.5 248.4C-212.2 232 -254.6 223.6 -273 198.4C-291.5 173.1 -286.2 131 -292.9 95.2C-299.7 59.3 -318.6 29.7 -337.5 0L0 0Z" fill="#0e1d3e"></path><path d="M0 253.1C-26.6 247.1 -53.2 241.1 -74.4 229C-95.6 216.8 -111.5 198.6 -135.3 186.3C-159.2 174 -190.9 167.7 -204.8 148.8C-218.6 129.9 -214.6 98.3 -219.7 71.4C-224.8 44.5 -238.9 22.2 -253.1 0L0 0Z" fill="#67175c"></path><path d="M0 168.8C-17.7 164.7 -35.4 160.7 -49.6 152.6C-63.8 144.6 -74.3 132.4 -90.2 124.2C-106.1 116 -127.3 111.8 -136.5 99.2C-145.8 86.6 -143.1 65.5 -146.5 47.6C-149.8 29.7 -159.3 14.8 -168.7 0L0 0Z" fill="#ba0037"></path><path d="M0 84.4C-8.9 82.4 -17.7 80.4 -24.8 76.3C-31.9 72.3 -37.2 66.2 -45.1 62.1C-53.1 58 -63.6 55.9 -68.3 49.6C-72.9 43.3 -71.5 32.8 -73.2 23.8C-74.9 14.8 -79.6 7.4 -84.4 0L0 0Z" fill="#cc2200"></path></g><g transform="translate(0, 450)"><path d="M0 -337.5C30.7 -320 61.5 -302.5 95.5 -293.9C129.5 -285.3 166.7 -285.7 196.9 -271C227.1 -256.4 250.2 -226.7 271 -196.9C291.8 -167.1 310.3 -137.1 321 -104.3C331.7 -71.4 334.6 -35.7 337.5 0L0 0Z" fill="#0e1d3e"></path><path d="M0 -253.1C23.1 -240 46.1 -226.8 71.6 -220.4C97.1 -214 125 -214.2 147.7 -203.3C170.3 -192.3 187.7 -170 203.3 -147.7C218.9 -125.3 232.7 -102.9 240.7 -78.2C248.8 -53.6 250.9 -26.8 253.1 0L0 0Z" fill="#67175c"></path><path d="M0 -168.7C15.4 -160 30.7 -151.2 47.7 -146.9C64.7 -142.6 83.4 -142.8 98.5 -135.5C113.5 -128.2 125.1 -113.4 135.5 -98.5C145.9 -83.5 155.1 -68.6 160.5 -52.1C165.8 -35.7 167.3 -17.9 168.8 0L0 0Z" fill="#ba0037"></path><path d="M0 -84.4C7.7 -80 15.4 -75.6 23.9 -73.5C32.4 -71.3 41.7 -71.4 49.2 -67.8C56.8 -64.1 62.6 -56.7 67.8 -49.2C73 -41.8 77.6 -34.3 80.2 -26.1C82.9 -17.9 83.6 -8.9 84.4 0L0 0Z" fill="#cc2200"></path></g></svg>