<svg id="visual" viewBox="0 0 900 450" width="900" height="450" xmlns="http://www.w3.org/2000/svg" xmlns:xlink="http://www.w3.org/1999/xlink" version="1.1"><rect x="0" y="0" width="900" height="450" fill="#001220"></rect><defs><linearGradient id="grad1_0" x1="50%" y1="0%" x2="100%" y2="100%"><stop offset="10%" stop-color="#cc2200" stop-opacity="1"></stop><stop offset="90%" stop-color="#cc2200" stop-opacity="1"></stop></linearGradient></defs><defs><linearGradient id="grad1_1" x1="50%" y1="0%" x2="100%" y2="100%"><stop offset="10%" stop-color="#cc2200" stop-opacity="1"></stop><stop offset="90%" stop-color="#960052" stop-opacity="1"></stop></linearGradient></defs><defs><linearGradient id="grad1_2" x1="50%" y1="0%" x2="100%" y2="100%"><stop offset="10%" stop-color="#362154" stop-opacity="1"></stop><stop offset="90%" stop-color="#960052" stop-opacity="1"></stop></linearGradient></defs><defs><linearGradient id="grad1_3" x1="50%" y1="0%" x2="100%" y2="100%"><stop offset="10%" stop-color="#362154" stop-opacity="1"></stop><stop offset="90%" stop-color="#001220" stop-opacity="1"></stop></linearGradient></defs><defs><linearGradient id="grad2_0" x1="0%" y1="0%" x2="50%" y2="100%"><stop offset="10%" stop-color="#cc2200" stop-opacity="1"></stop><stop offset="90%" stop-color="#cc2200" stop-opacity="1"></stop></linearGradient></defs><defs><linearGradient id="grad2_1" x1="0%" y1="0%" x2="50%" y2="100%"><stop offset="10%" stop-color="#960052" stop-opacity="1"></stop><stop offset="90%" stop-color="#cc2200" stop-opacity="1"></stop></linearGradient></defs><defs><linearGradient id="grad2_2" x1="0%" y1="0%" x2="50%" y2="100%"><stop offset="10%" stop-color="#960052" stop-opacity="1"></stop><stop offset="90%" stop-color="#362154" stop-opacity="1"></stop></linearGradient></defs><defs><linearGradient id="grad2_3" x1="0%" y1="0%" x2="50%" y2="100%"><stop offset="10%" stop-color="#001220" stop-opacity="1"></stop><stop offset="90%" stop-color="#362154" stop-opacity="1"></stop></linearGradient></defs><g transform="translate(900, 0)"><path d="M0 337.5C-35.4 334.4 -70.8 331.3 -104.3 321C-137.7 310.7 -169.2 293.2 -196.9 271C-224.6 248.8 -248.5 222 -264.5 192.2C-280.6 162.5 -288.7 129.9 -299.6 97.3C-310.4 64.8 -324 32.4 -337.5 0L0 0Z" fill="#0e1d3e"></path><path d="M0 253.1C-26.6 250.8 -53.1 248.5 -78.2 240.7C-103.3 233 -126.9 219.9 -147.7 203.3C-168.5 186.6 -186.4 166.5 -198.4 144.2C-210.4 121.8 -216.6 97.4 -224.7 73C-232.8 48.6 -243 24.3 -253.1 0L0 0Z" fill="#67175c"></path><path d="M0 168.8C-17.7 167.2 -35.4 165.6 -52.1 160.5C-68.9 155.3 -84.6 146.6 -98.5 135.5C-112.3 124.4 -124.3 111 -132.3 96.1C-140.3 81.2 -144.4 64.9 -149.8 48.7C-155.2 32.4 -162 16.2 -168.7 0L0 0Z" fill="#ba0037"></path><path d="M0 84.4C-8.9 83.6 -17.7 82.8 -26.1 80.2C-34.4 77.7 -42.3 73.3 -49.2 67.8C-56.2 62.2 -62.1 55.5 -66.1 48.1C-70.1 40.6 -72.2 32.5 -74.9 24.3C-77.6 16.2 -81 8.1 -84.4 0L0 0Z" fill="#cc2200"></path></g><g transform="translate(0, 450)"><path d="M0 -337.5C30.6 -318.5 61.2 -299.6 93.9 -289.1C126.7 -278.7 161.6 -276.8 190.4 -262.1C219.3 -247.4 242.2 -220 264.5 -192.2C286.9 -164.4 308.9 -136.4 321 -104.3C333.1 -72.2 335.3 -36.1 337.5 0L0 0Z" fill="#0e1d3e"></path><path d="M0 -253.1C22.9 -238.9 45.9 -224.7 70.5 -216.8C95 -209 121.2 -207.6 142.8 -196.6C164.5 -185.6 181.6 -165 198.4 -144.2C215.2 -123.3 231.7 -102.3 240.7 -78.2C249.8 -54.2 251.5 -27.1 253.1 0L0 0Z" fill="#67175c"></path><path d="M0 -168.7C15.3 -159.3 30.6 -149.8 47 -144.6C63.3 -139.3 80.8 -138.4 95.2 -131.1C109.7 -123.7 121.1 -110 132.3 -96.1C143.5 -82.2 154.4 -68.2 160.5 -52.1C166.5 -36.1 167.6 -18.1 168.8 0L0 0Z" fill="#ba0037"></path><path d="M0 -84.4C7.6 -79.6 15.3 -74.9 23.5 -72.3C31.7 -69.7 40.4 -69.2 47.6 -65.5C54.8 -61.9 60.5 -55 66.1 -48.1C71.7 -41.1 77.2 -34.1 80.2 -26.1C83.3 -18.1 83.8 -9 84.4 0L0 0Z" fill="#cc2200"></path></g></svg>