<svg id="visual" viewBox="0 0 900 450" width="900" height="450" xmlns="http://www.w3.org/2000/svg" xmlns:xlink="http://www.w3.org/1999/xlink" version="1.1"><rect x="0" y="0" width="900" height="450" fill="#001220"></rect><defs><linearGradient id="grad1_0" x1="50%" y1="0%" x2="100%" y2="100%"><stop offset="10%" stop-color="#cc2200" stop-opacity="1"></stop><stop offset="90%" stop-color="#cc2200" stop-opacity="1"></stop></linearGradient></defs><defs><linearGradient id="grad1_1" x1="50%" y1="0%" x2="100%" y2="100%"><stop offset="10%" stop-color="#cc2200" stop-opacity="1"></stop><stop offset="90%" stop-color="#960052" stop-opacity="1"></stop></linearGradient></defs><defs><linearGradient id="grad1_2" x1="50%" y1="0%" x2="100%" y2="100%"><stop offset="10%" stop-color="#362154" stop-opacity="1"></stop><stop offset="90%" stop-color="#960052" stop-opacity="1"></stop></linearGradient></defs><defs><linearGradient id="grad1_3" x1="50%" y1="0%" x2="100%" y2="100%"><stop offset="10%" stop-color="#362154" stop-opacity="1"></stop><stop offset="90%" stop-color="#001220" stop-opacity="1"></stop></linearGradient></defs><defs><linearGradient id="grad2_0" x1="0%" y1="0%" x2="50%" y2="100%"><stop offset="10%" stop-color="#cc2200" stop-opacity="1"></stop><stop offset="90%" stop-color="#cc2200" stop-opacity="1"></stop></linearGradient></defs><defs><linearGradient id="grad2_1" x1="0%" y1="0%" x2="50%" y2="100%"><stop offset="10%" stop-color="#960052" stop-opacity="1"></stop><stop offset="90%" stop-color="#cc2200" stop-opacity="1"></stop></linearGradient></defs><defs><linearGradient id="grad2_2" x1="0%" y1="0%" x2="50%" y2="100%"><stop offset="10%" stop-color="#960052" stop-opacity="1"></stop><stop offset="90%" stop-color="#362154" stop-opacity="1"></stop></linearGradient></defs><defs><linearGradient id="grad2_3" x1="0%" y1="0%" x2="50%" y2="100%"><stop offset="10%" stop-color="#001220" stop-opacity="1"></stop><stop offset="90%" stop-color="#362154" stop-opacity="1"></stop></linearGradient></defs><g transform="translate(900, 0)"><path d="M0 337.5C-34.2 330.9 -68.4 324.2 -102.3 314.8C-136.2 305.4 -169.7 293.1 -198.4 273C-227 253 -250.7 225.1 -268.6 195.1C-286.5 165.2 -298.6 133.3 -309.1 100.4C-319.6 67.6 -328.6 33.8 -337.5 0L0 0Z" fill="#0e1d3e"></path><path d="M0 253.1C-25.6 248.2 -51.3 243.2 -76.7 236.1C-102.1 229 -127.3 219.8 -148.8 204.8C-170.3 189.7 -188 168.8 -201.4 146.4C-214.9 123.9 -223.9 100 -231.8 75.3C-239.7 50.7 -246.4 25.3 -253.1 0L0 0Z" fill="#67175c"></path><path d="M0 168.8C-17.1 165.4 -34.2 162.1 -51.1 157.4C-68.1 152.7 -84.9 146.6 -99.2 136.5C-113.5 126.5 -125.4 112.5 -134.3 97.6C-143.2 82.6 -149.3 66.6 -154.5 50.2C-159.8 33.8 -164.3 16.9 -168.7 0L0 0Z" fill="#ba0037"></path><path d="M0 84.4C-8.5 82.7 -17.1 81.1 -25.6 78.7C-34 76.3 -42.4 73.3 -49.6 68.3C-56.8 63.2 -62.7 56.3 -67.1 48.8C-71.6 41.3 -74.6 33.3 -77.3 25.1C-79.9 16.9 -82.1 8.4 -84.4 0L0 0Z" fill="#cc2200"></path></g><g transform="translate(0, 450)"><path d="M0 -337.5C34.3 -330.9 68.5 -324.3 102.3 -314.8C136 -305.3 169.3 -292.9 198.4 -273C227.5 -253.2 252.5 -226 269.4 -195.7C286.4 -165.5 295.3 -132.3 305.3 -99.2C315.3 -66.1 326.4 -33 337.5 0L0 0Z" fill="#0e1d3e"></path><path d="M0 -253.1C25.7 -248.2 51.4 -243.2 76.7 -236.1C102 -229 127 -219.7 148.8 -204.8C170.6 -189.9 189.3 -169.5 202.1 -146.8C214.8 -124.1 221.5 -99.2 229 -74.4C236.5 -49.6 244.8 -24.8 253.1 0L0 0Z" fill="#67175c"></path><path d="M0 -168.7C17.1 -165.5 34.3 -162.2 51.1 -157.4C68 -152.6 84.6 -146.4 99.2 -136.5C113.7 -126.6 126.2 -113 134.7 -97.9C143.2 -82.8 147.6 -66.2 152.6 -49.6C157.7 -33 163.2 -16.5 168.8 0L0 0Z" fill="#ba0037"></path><path d="M0 -84.4C8.6 -82.7 17.1 -81.1 25.6 -78.7C34 -76.3 42.3 -73.2 49.6 -68.3C56.9 -63.3 63.1 -56.5 67.4 -48.9C71.6 -41.4 73.8 -33.1 76.3 -24.8C78.8 -16.5 81.6 -8.3 84.4 0L0 0Z" fill="#cc2200"></path></g></svg>